<?xml version="1.0" encoding="UTF-8"?>
<svg width="1200pt" height="1200pt" version="1.1" viewBox="0 0 1200 1200" xmlns="http://www.w3.org/2000/svg">
 <path d="m393.6 852c-12 28.801-18 58.801-18 91.199-7.1992-3.6016-14.398-6-21.602-9.6016-84-48-132-118.8-142.8-214.8-4.8008-46.801 1.1992-91.199 16.801-135.6 9.6016-26.398 21.602-50.398 32.398-76.801 1.1992-3.6016 3.6016-7.1992 3.6016-10.801 1.1992-52.801 0-105.6-14.398-157.2-12-43.199-30-82.801-57.602-120-3.6016-4.8008-8.3984-10.801-10.801-16.801-6-13.199 1.1992-27.602 16.801-26.398 9.6016 0 19.199 2.3984 27.602 6 43.199 15.602 81.602 40.801 118.8 67.199 37.199 27.602 72 58.801 104.4 91.199 22.801-12 45.602-24 68.398-34.801 66-31.199 135.6-51.602 207.6-61.199 69.602-9.6016 139.2-8.3984 208.8 10.801 40.801 10.801 78 27.602 110.4 54 14.398 10.801 26.398 25.199 37.199 38.398 15.602 16.801 14.398 37.199 10.801 58.801-10.801 60-34.801 114-67.199 165.6-24 38.398-50.398 73.199-81.602 106.8-3.6016 3.6016-4.8008 7.1992-2.3984 12 14.398 42 21.602 85.199 19.199 129.6-1.1992 31.199-7.1992 62.398-20.398 91.199-6 14.398-15.602 26.398-33.602 28.801-12 1.1992-22.801-3.6016-33.602-8.3984-32.398-18-57.602-44.398-78-73.199-12-15.602-21.602-32.398-31.199-49.199-2.3984-3.6016-4.8008-4.8008-8.3984-3.6016-28.801 7.1992-56.398 14.398-85.199 21.602-3.6016 1.1992-7.1992 2.3984-8.3984 7.1992-26.398 56.398-61.199 106.8-108 148.8-21.602 19.199-43.199 36-69.602 48-8.3984 3.6016-18 7.1992-26.398 9.6016-22.801 4.8008-38.398-4.8008-43.199-27.602-3.6016-16.801-4.8008-33.602-4.8008-50.398 1.1992-62.398 19.199-121.2 52.801-174 4.8008-7.1992 9.6016-14.398 15.602-21.602-8.3984-2.3984-16.801-6-25.199-8.3984-30-9.6016-60-20.398-91.199-24-15.602-1.1992-31.199-1.1992-45.602 2.3984-27.602 7.1992-36 31.199-20.398 55.199 12 18 30 30 49.199 40.801 14.398 7.1992 28.801 13.199 43.199 20.398 2.3945-3.5977 3.5938-2.3984 5.9961-1.1992zm289.2-66 2.3984 2.3984c19.199-3.6016 38.398-7.1992 57.602-12 52.801-13.199 102-36 140.4-74.398 26.398-26.398 50.398-55.199 74.398-84 34.801-42 63.602-88.801 84-139.2 6-16.801 12-33.602 18-50.398 0-1.1992-1.1992-1.1992-1.1992-2.3984-13.199 1.1992-26.398 2.3984-39.602 4.8008-64.801 14.398-120 46.801-170.4 90-68.398 57.594-118.8 127.2-148.8 210-6 18-12 37.199-16.801 55.199zm-24-238.8v0c2.3984-1.1992 4.8008-1.1992 8.3984-1.1992h2.3984c49.199-7.1992 92.398-27.602 129.6-61.199 6-6 12-12 16.801-19.199 8.3984-13.199 2.3984-26.398-12-30-8.3984-2.3984-16.801-3.6016-24-2.3984-49.199 4.8008-93.602 24-132 54-8.3984 7.1992-16.801 16.801-21.602 26.398-7.1992 13.199 0 26.398 14.398 30 6.0039 1.1992 12.004 2.3984 18.004 3.5977z"/>
</svg>
